<svg xmlns="http://www.w3.org/2000/svg" viewBox="0 0 180.521 137.81">
  <defs>
    <style>
      .cls-1 {
        fill: #082428;
      }
    </style>
  </defs>

    <g id="frontartgraph" data-name="レイヤー 1">
      <path class="F" d="M0,26.348V1H13.367V3.674H3.037v8.68h9.241v2.707H3.037V26.348Z"/>
      <path class="A" d="M9.77,56.533h2.805l9.8,25.348H19.011l-2.8-7.459H5.842L3.1,81.881H0Zm5.709,15.479L11.09,59.966,6.634,72.012Z"/>
      <path
        class="cls-2"
        d="M16.568,126.357H10.43v-2.574h8.977V136.49a23.192,23.192,0,0,1-7.525,1.32C2.772,137.81,0,132,0,125c0-7.1,2.574-13.565,11.815-13.565A20.424,20.424,0,0,1,18.12,112.5l-.528,2.773a15.926,15.926,0,0,0-5.677-1.09c-6.535,0-8.647,4.951-8.647,10.859,0,5.644,2.178,10.067,8.746,10.067a13.532,13.532,0,0,0,4.554-.76Z"/>
      <path
        class="cls-3"
        d="M53.844,20.011c-1.321-3.07-2.377-4.49-4.687-4.49H44.833V26.348H41.962V1H47.8c5.214,0,9.538,1.057,9.538,6.7a6.275,6.275,0,0,1-4.753,6.568c1.585.593,2.674,1.783,3.631,4.06.924,2.145,2.409,5.676,3.334,8.02h-3.3C55.692,24.565,54.735,22.09,53.844,20.011Zm.495-11.982c0-3.465-2.509-4.388-6.238-4.388H44.833v9.373h5.149A4.713,4.713,0,0,0,54.339,8.029Z"/>
      <path
        class="cls-4"
        d="M53.844,75.511c-1.321-3.07-2.376-4.49-4.687-4.49H44.833V81.848H41.962V56.5H47.8c5.214,0,9.538,1.057,9.538,6.7a6.275,6.275,0,0,1-4.752,6.568c1.584.593,2.673,1.783,3.63,4.06.924,2.145,2.409,5.676,3.334,8.02h-3.3C55.692,80.065,54.734,77.59,53.844,75.511Zm.495-11.982c0-3.465-2.509-4.388-6.238-4.388H44.833v9.373h5.149A4.713,4.713,0,0,0,54.339,63.529Z"/>
      <path
        class="cls-1"
        d="M53.844,131.011c-1.321-3.07-2.376-4.49-4.687-4.49H44.833v10.827H41.962V112H47.8c5.214,0,9.538,1.057,9.538,6.7a6.275,6.275,0,0,1-4.752,6.568c1.584.593,2.673,1.783,3.63,4.06.924,2.145,2.409,5.676,3.334,8.02h-3.3C55.692,135.565,54.734,133.09,53.844,131.011Zm.495-11.982c0-3.465-2.509-4.388-6.239-4.388H44.833v9.373h5.149A4.713,4.713,0,0,0,54.339,119.029Z"/>
      <path
        class="cls-1"
        d="M79.138,13.607c0-6.865,3.07-13.2,11.684-13.2,8.581,0,11.716,6.336,11.716,13.235,0,6.6-2.871,13.334-11.716,13.334-7.492,0-11.684-5.05-11.684-13.334Zm3.235.034c0,7.755,3.729,10.594,8.449,10.594,4.951,0,8.449-3.036,8.449-10.628,0-6.633-2.706-10.495-8.449-10.495s-8.449,3.895-8.449,10.5Z"/>
      <path class="cls-1" d="M89.286,82.161V59.487H81.564V56.813h18.548v2.674H92.357V82.161Z"/>
      <path class="cls-1" d="M89.419,112h2.806l9.8,25.348H98.66l-2.8-7.459H85.491l-2.739,7.459h-3.1Zm5.71,15.479-4.39-12.046-4.456,12.046Z"/>
      <path class="cls-1" d="M125.027,25.348h-2.9V0h4.026l12.344,20.6V0h2.9V25.348h-3.432L125.027,3.564Z"/>
      <path class="cls-1" d="M123.657,137.348V112h6.007c6.139,0,10.2,1.717,10.2,7.426,0,5.908-3.829,8.317-8.713,8.317h-4.423v9.605Zm6.7-12.212c3.3,0,6.37-.924,6.37-5.512,0-3.763-2.674-4.95-6.932-4.95h-3.069v10.462Z"/>
      <path class="cls-1" d="M169.2,26.348V3.674h-7.723V1h18.549V3.674h-7.757V26.348Z"/>
      <path class="cls-0" d="M164.051,137.348h-3.069V112h3.069v11.057h13.4V112h3.069v25.348h-3.069V125.73h-13.4Z"/>
    </g>

</svg>
