<svg xmlns="http://www.w3.org/2000/svg" viewBox="0 0 427.325 60.729"><defs><style>.cls-1{fill:#4cd964;}</style></defs><title>rbhugram</title><g id="レイヤー_2" data-name="レイヤー 2"><g id="レイヤー_1-2" data-name="レイヤー 1"><path d="M128.416,20.216V50.052h-5.33V20.216a2.581,2.581,0,0,0-2.535-2.535H97.929a2.6,2.6,0,0,0-2.6,2.535V50.052H90V0H95.33V12.351h25.221A7.892,7.892,0,0,1,128.416,20.216Z"/><path d="M178.007,12.351V42.187a7.865,7.865,0,0,1-7.93,7.865H147.456a7.851,7.851,0,0,1-7.865-7.865V12.351h5.33V42.187a2.581,2.581,0,0,0,2.535,2.535h22.621a2.6,2.6,0,0,0,2.6-2.535V12.351Z"/><polygon points="0 50.052 5.33 50.052 5.33 20.216 0 30.314 0 50.052"/><polygon points="7.865 12.351 15.692 17.681 29.057 17.681 29.057 12.351 7.865 12.351"/><path class="cls-1" d="M15.692,17.681H7.865A2.581,2.581,0,0,0,5.33,20.216L0,30.314v-10.1a7.851,7.851,0,0,1,7.865-7.865"/><polygon points="274 46.052 279.33 46.052 279.33 16.216 274 26.314 274 46.052"/><polygon points="281.865 8.351 289.692 13.681 303.057 13.681 303.057 8.351 281.865 8.351"/><path class="cls-1" d="M289.692,13.681h-7.827a2.581,2.581,0,0,0-2.535,2.535L274,26.314v-10.1a7.851,7.851,0,0,1,7.865-7.865"/><path d="M355.771,16.008V45.843H325.22a7.851,7.851,0,0,1-7.866-7.865V24.328h33.022v-8.32a2.538,2.538,0,0,0-2.535-2.536H317.354V8.142h30.487A7.865,7.865,0,0,1,355.771,16.008Zm-5.4,13.65H322.685v8.32a2.581,2.581,0,0,0,2.535,2.535h25.156Z"/><path d="M427.325,16.008V45.843h-5.264V16.008a2.6,2.6,0,0,0-2.6-2.536H403.8a2.538,2.538,0,0,0-2.535,2.536V45.843h-5.4V16.008a2.581,2.581,0,0,0-2.535-2.536H377.6a2.582,2.582,0,0,0-2.536,2.536V45.843h-5.395V8.142H419.46A7.809,7.809,0,0,1,427.325,16.008Z"/><path d="M78.649,20.216V42.187a7.851,7.851,0,0,1-7.866,7.865H40.232V0h5.331V12.351h25.22A7.851,7.851,0,0,1,78.649,20.216Zm-5.33,0a2.581,2.581,0,0,0-2.536-2.535H48.162a2.6,2.6,0,0,0-2.6,2.535V42.187a2.6,2.6,0,0,0,2.6,2.535H70.783a2.581,2.581,0,0,0,2.536-2.535Z"/><rect class="cls-1" x="53.541" y="25.431" width="12" height="11.571" rx="2.937" ry="2.937"/><path d="M252.3,60.729H228.771V55.334H252.3a2.581,2.581,0,0,0,2.535-2.535V45.843H229.681a7.85,7.85,0,0,1-7.866-7.865V16.008a7.851,7.851,0,0,1,7.866-7.866H252.3a7.81,7.81,0,0,1,7.865,7.866V52.8A7.825,7.825,0,0,1,252.3,60.729Zm0-20.216a2.581,2.581,0,0,0,2.535-2.535V16.008a2.581,2.581,0,0,0-2.535-2.536H229.681a2.581,2.581,0,0,0-2.535,2.536v21.97a2.581,2.581,0,0,0,2.535,2.535Z"/><rect class="cls-1" x="235.041" y="21.223" width="12" height="11.571" rx="2.937" ry="2.937"/></g></g></svg>